# xmcd
#
# Track frame offsets:
#	150
#	17031
#	32405
#	48114
#	64456
#	82095
#	103535
#	120891
#	137353
#	154994
#	169004
#	179884
#	195043
#	210726
#	228069
#	244446
#	261634
#	279503
#
# Disc length: 4005 seconds
#
# Revision: 1
# Processed by: cddbd v1.4PL0 Copyright (c) Steve Scherf et al.
# Submitted via: audiograbber 1.81.03
#
DISCID=f50fa312
DTITLE=Various Artist - Hott Country 66
DYEAR=2001
DGENRE=Country
TTITLE0=Brooks and Dunn - Only In America
TTITLE1=Diamond Rio - Sweet Summer
TTITLE2=Martina McBride - When God Fearing Woman Get The Blues
TTITLE3=Lila McCann - Come A Little Closer
TTITLE4=Dixie Chicks - HeartbreakTown
TTITLE5=Trace Adkins - I'm Tryin'
TTITLE6=John Michael Montgomery - Even Then
TTITLE7=Jessica Andrews - Helplessly, Hopelessly
TTITLE8=Br5-49 - Too Lazy To Work, Too Nervous to Steal
TTITLE9=Shelby Lynne - Killin' Kind
TTITLE10=Neal Coty - Right Down Through the Middle Of Us
TTITLE11=Coley McCabe - Who I Am To You
TTITLE12=Phil Vassar - Six Pack Summer
TTITLE13=Amanda Stott - I Just Believe That I Can
TTITLE14=Travis Tritt - Love Of A Woman
TTITLE15=John Anderson - It Ain't Easy Being Me
TTITLE16=Billy Ray Cyrus - Southern Rain
TTITLE17=Kentucky Headhunters - Too Much to Lose
EXTD=
EXTT0=
EXTT1=
EXTT2=
EXTT3=
EXTT4=
EXTT5=
EXTT6=
EXTT7=
EXTT8=
EXTT9=
EXTT10=
EXTT11=
EXTT12=
EXTT13=
EXTT14=
EXTT15=
EXTT16=
EXTT17=
PLAYORDER=
